<?xml version="1.0" encoding="UTF-8" standalone="no"?>
<svg
   width="24"
   height="24"
   fill="none"
   version="1.1"
   viewBox="0 0 24 24"
   id="bedrock"
   xmlns="http://www.w3.org/2000/svg"
   xmlns:svg="http://www.w3.org/2000/svg">
  <defs id="defs1" />
  <path
     d="M 12,2 L 4,6 L 4,8 L 12,12 L 20,8 L 20,6 Z"
     fill="#F58536"
     id="layer1" />
  <path
     d="M 12,12 L 4,8 L 4,6 L 12,2"
     fill="#9D5025"
     id="layer1-shadow" />
  <path
     d="M 4,10.5 L 4,12.5 L 12,16.5 L 20,12.5 L 20,10.5 L 12,14.5 Z"
     fill="#F58536"
     id="layer2" />
  <path
     d="M 12,14.5 L 4,10.5 L 4,12.5 L 12,16.5"
     fill="#9D5025"
     id="layer2-shadow" />
  <path
     d="M 4,15 L 4,17 L 12,21 L 20,17 L 20,15 L 12,19 Z"
     fill="#F58536"
     id="layer3" />
  <path
     d="M 12,19 L 4,15 L 4,17 L 12,21"
     fill="#9D5025"
     id="layer3-shadow" />
</svg>
